<svg version="1.1" id="Layer_1" xmlns="http://www.w3.org/2000/svg" xmlns:xlink="http://www.w3.org/1999/xlink" x="0px" y="0px"
	 width="40px" height="40px" viewBox="0 0 40 40" style="enable-background:new 0 0 40 40;" xml:space="preserve">
<path style="fill-rule:evenodd;clip-rule:evenodd;" d="M36.521,23.948c-0.422,1.772-1.121,3.432-2.049,4.94
	c1.206,1.569,1.107,3.817-0.329,5.254c-1.437,1.437-3.686,1.535-5.254,0.329c-1.508,0.929-3.169,1.627-4.941,2.049
	C23.69,38.481,22.031,40,20,40c-2.031,0-3.69-1.519-3.948-3.479c-1.772-0.422-3.432-1.121-4.94-2.049
	c-1.568,1.206-3.817,1.108-5.254-0.329c-1.437-1.437-1.535-3.685-0.329-5.254C4.6,27.38,3.901,25.72,3.479,23.948
	C1.519,23.69,0,22.031,0,20s1.519-3.69,3.479-3.948c0.422-1.772,1.121-3.432,2.049-4.941C4.322,9.543,4.421,7.295,5.857,5.858
	c1.437-1.437,3.686-1.535,5.254-0.329c1.508-0.929,3.168-1.627,4.94-2.049C16.31,1.519,17.969,0,20,0s3.69,1.519,3.947,3.479
	C25.72,3.902,27.38,4.6,28.888,5.529c1.568-1.206,3.817-1.107,5.254,0.329c1.437,1.437,1.535,3.686,0.329,5.254
	c0.928,1.508,1.627,3.169,2.049,4.941C38.481,16.31,40,17.969,40,20S38.481,23.69,36.521,23.948z M20,16c-2.209,0-4,1.791-4,4
	c0,2.209,1.791,4,4,4c2.209,0,4-1.791,4-4C24,17.791,22.209,16,20,16z"/>
</svg>
