<svg version="1.1" id="Layer_1" xmlns="http://www.w3.org/2000/svg" xmlns:xlink="http://www.w3.org/1999/xlink" x="0px" y="0px"
	 width="40px" height="40px" viewBox="0 0 40 40" style="enable-background:new 0 0 40 40;" xml:space="preserve">
<path style="fill-rule:evenodd;clip-rule:evenodd;" d="M36,38h-8c-2.209,0-4-1.791-4-4V8c0-2.209,1.791-4,4-4h8c2.209,0,4,1.791,4,4
	v26C40,36.209,38.209,38,36,38z M34,10h-4v2h4V10z M18,38h-8c-2.209,0-4-1.791-4-4V8c0-2.209,1.791-4,4-4h8c2.209,0,4,1.791,4,4v26
	C22,36.209,20.209,38,18,38z M16,10h-4v2h4V10z M2,40c-1.105,0-2-0.896-2-2V2c0-1.104,0.896-2,2-2c1.104,0,2,0.896,2,2v36
	C4,39.104,3.105,40,2,40z"/>
</svg>
