<svg version="1.1" id="Layer_1" xmlns="http://www.w3.org/2000/svg" xmlns:xlink="http://www.w3.org/1999/xlink" x="0px" y="0px"
	 width="45.272px" height="40.982px" viewBox="0 0 45.272 40.982" style="enable-background:new 0 0 45.272 40.982;"
	 xml:space="preserve">
<path style="fill-rule:evenodd;clip-rule:evenodd;" d="M33.384,7.621l-0.002-0.002c0,0,0.001,0.001,0.001,0.001
	C33.383,7.62,33.384,7.621,33.384,7.621z M42.623,15.433L30.541,27.508c0,0-0.001,0-0.001,0.001l-9.949,9.943
	c-4.711,4.708-12.348,4.708-17.058,0c-4.71-4.707-4.71-12.339,0-17.046L19.44,4.508L16.326,7.62l2.843,2.841L6.375,23.246
	c-3.14,3.138-3.14,8.226,0,11.365c3.14,3.138,8.231,3.138,11.372,0l2.843-2.841l0,0l7.524-7.52L39.78,12.592
	c1.963-1.961,1.963-5.142,0-7.103c-1.962-1.961-5.145-1.961-7.107,0L31.701,6.46l0,0l-4.493,4.49L14.904,23.246
	c-0.785,0.785-0.785,2.057,0,2.841c0.785,0.784,2.058,0.785,2.843,0l8.528-8.523l2.843,2.841l0,0l-2.843-2.841l1.421-1.421
	c0.785-0.785,2.058-0.785,2.843,0c0.784,0.784,0.785,2.054,0.001,2.839l2.842-2.84c0,0,0,0-0.001,0.001l-2.841,2.839
	c0,0,0,0.001-0.001,0.002l-1.421,1.42l0,0l-8.529,8.524c-2.355,2.354-6.174,2.354-8.529,0c-2.354-2.354-2.355-6.17,0-8.523
	L24.854,7.62l0,0l4.975-4.972c3.533-3.531,9.26-3.531,12.793,0C46.156,6.178,46.156,11.903,42.623,15.433z M40.491,0.517
	C40.491,0.518,40.491,0.518,40.491,0.517L40.491,0.517C40.49,0.517,40.49,0.517,40.491,0.517z M19.169,10.461L16.326,7.62
	l1.421-1.42c0.785-0.785,2.058-0.785,2.843,0c0.785,0.785,0.785,2.057,0,2.841L19.169,10.461z"/>
</svg>
