<svg version="1.1" id="Layer_1" xmlns="http://www.w3.org/2000/svg" xmlns:xlink="http://www.w3.org/1999/xlink" x="0px" y="0px"
	 width="32.028px" height="32.028px" viewBox="0 0 32.028 32.028" style="enable-background:new 0 0 32.028 32.028;"
	 xml:space="preserve">
<path style="fill-rule:evenodd;clip-rule:evenodd;" d="M18.948,16.014L31.42,28.486c0.81,0.811,0.81,2.125,0,2.935
	c-0.811,0.811-2.125,0.811-2.935,0L16.013,18.948L3.542,31.419c-0.81,0.811-2.124,0.81-2.934,0s-0.81-2.124,0-2.935l12.471-12.471
	L0.608,3.543c-0.81-0.81-0.81-2.124,0-2.934c0.81-0.811,2.124-0.811,2.934,0L16.013,13.08L28.485,0.608
	c0.811-0.811,2.124-0.811,2.935,0v0c0.81,0.811,0.81,2.125,0,2.935L18.948,16.014z"/>
</svg>
