<svg version="1.1" id="Layer_1" xmlns="http://www.w3.org/2000/svg" xmlns:xlink="http://www.w3.org/1999/xlink" x="0px" y="0px"
	 width="50px" height="36px" viewBox="0 0 50 36" style="enable-background:new 0 0 50 36;" xml:space="preserve">
<path style="fill-rule:evenodd;clip-rule:evenodd;" d="M50,30.007c-2.634,0-5.592,0-8.633,0c-2.103-3.337-5.019-6.462-8.482-8.812
	C34.438,20.458,36.167,20,37.999,20C34.686,20,32,17.313,32,14c0-3.313,2.686-6,6-6c3.313,0,6,2.686,6,6c0,3.314-2.686,6-5.999,6
	C44.628,20,50,25.862,50,30.007z M20,20c-5.523,0-10-4.477-10-10S14.477,0,20,0c5.523,0,10,4.477,10,10S25.523,20,20,20z M40,36
	c-12,0-28,0-40,0c0-6.627,8.954-16,20-16S40,29.373,40,36z"/>
</svg>
