<svg version="1.1" id="Layer_1" xmlns="http://www.w3.org/2000/svg" xmlns:xlink="http://www.w3.org/1999/xlink" x="0px" y="0px"
	 width="40px" height="37.125px" viewBox="0 0 40 37.125" style="enable-background:new 0 0 40 37.125;" xml:space="preserve">
<path style="fill-rule:evenodd;clip-rule:evenodd;" d="M36.396,21.969h0.011l-0.1,0.098c-0.105,0.108-0.215,0.212-0.325,0.317
	L21.46,36.559c-0.806,0.755-2.113,0.755-2.919,0L4.026,22.391c-0.114-0.108-0.228-0.216-0.337-0.329l-0.095-0.093h0.011
	C1.376,19.636,0,16.481,0,13C0,5.82,5.82,0,13,0c2.58,0,4.978,0.761,7,2.057C22.022,0.761,24.42,0,27,0c7.179,0,13,5.82,13,13
	C40,16.481,38.624,19.636,36.396,21.969z"/>
</svg>
