<svg version="1.1" id="Layer_1" xmlns="http://www.w3.org/2000/svg" xmlns:xlink="http://www.w3.org/1999/xlink" x="0px" y="0px"
	 width="36px" height="40px" viewBox="0 0 36 40" style="enable-background:new 0 0 36 40;" xml:space="preserve">
<path style="fill-rule:evenodd;clip-rule:evenodd;" d="M32,40H4c-2.209,0-4-1.791-4-4V4c0-2.209,1.791-4,4-4h28c2.209,0,4,1.791,4,4
	v32C36,38.209,34.209,40,32,40z M18,34h4v-4h-4V34z M12,34h4v-4h-4V34z M6,34h4v-4H6V34z M10,6H6v4h4V6z M16,6h-4v4h4V6z M32,13H4v2
	h28V13z M6,18v4h4v-4H6z M32,25H4v2h28V25z"/>
</svg>
