<svg version="1.1" id="Layer_1" xmlns="http://www.w3.org/2000/svg" xmlns:xlink="http://www.w3.org/1999/xlink" x="0px" y="0px"
	 width="38px" height="32.001px" viewBox="0 0 38 32.001" style="enable-background:new 0 0 38 32.001;" xml:space="preserve">
<path style="fill-rule:evenodd;clip-rule:evenodd;" d="M38,30L38,30L38,30L38,30z M36,32H10c-1.104,0-2-0.896-2-2
	c0-1.104,0.896-2,2-2h26c1.104,0,2,0.896,2,2S37.104,32,36,32z M8,30L8,30L8,30L8,30z M36,18H10c-1.104,0-2-0.896-2-2
	c0-1.104,0.896-2,2-2h26c1.104,0,2,0.896,2,2S37.104,18,36,18z M8,16L8,16L8,16L8,16z M38,16L38,16L38,16L38,16z M36,4H10
	C8.895,4,8,3.104,8,2c0-1.104,0.896-2,2-2h26c1.104,0,2,0.896,2,2S37.104,4,36,4z M8,2L8,2L8,2L8,2z M38,2L38,2L38,2L38,2z
	 M2,32.001c-1.104,0-2-0.896-2-2c0-1.105,0.896-2,2-2s2,0.895,2,2C4,31.105,3.104,32.001,2,32.001z M2,18.001c-1.104,0-2-0.896-2-2
	c0-1.105,0.896-2,2-2s2,0.895,2,2C4,17.105,3.104,18.001,2,18.001z M2,4.001c-1.104,0-2-0.896-2-2c0-1.105,0.896-2,2-2s2,0.895,2,2
	C4,3.105,3.104,4.001,2,4.001z"/>
</svg>
