<svg version="1.1" id="Layer_1" xmlns="http://www.w3.org/2000/svg" xmlns:xlink="http://www.w3.org/1999/xlink" x="0px" y="0px"
	 width="40px" height="40px" viewBox="0 0 40 40" style="enable-background:new 0 0 40 40;" xml:space="preserve">
<path style="fill-rule:evenodd;clip-rule:evenodd;" d="M20,40C8.954,40,0,31.046,0,20C0,8.954,8.954,0,20,0s20,8.954,20,20
	C40,31.046,31.046,40,20,40z M20,10L20,10L20,10L20,10c-1.104,0-2,0.896-2,2s0.896,2,2,2l0,0l0,0l0,0c1.104,0,2-0.896,2-2
	S21.104,10,20,10z M22,18c0-1.104-0.896-2-2-2l0,0l0,0l0,0c-1.104,0-2,0.896-2,2v10c0,1.104,0.896,2,2,2l0,0l0,0l0,0
	c1.104,0,2-0.896,2-2V18z"/>
</svg>
