<svg version="1.1" id="Layer_1" xmlns="http://www.w3.org/2000/svg" xmlns:xlink="http://www.w3.org/1999/xlink" x="0px" y="0px"
	 width="40.003px" height="40.003px" viewBox="0 0 40.003 40.003" style="enable-background:new 0 0 40.003 40.003;"
	 xml:space="preserve">
<path style="fill-rule:evenodd;clip-rule:evenodd;" d="M38.832,33.174c1.562,1.563,1.562,4.095,0,5.657
	c-1.562,1.562-4.095,1.562-5.657,0l-7.071-7.071c-0.093-0.093-0.148-0.186-0.224-0.279c-0.128,0.079-0.245,0.168-0.376,0.244
	c-8.131,4.694-18.528,1.909-23.222-6.222C-2.414,17.372,0.372,6.975,8.503,2.281c8.131-4.695,18.528-1.909,23.222,6.222
	c3.227,5.588,2.919,12.247-0.228,17.389c0.088,0.072,0.175,0.124,0.263,0.211L38.832,33.174z M11.926,9.244
	c-2.973,1.696-4.389,5.023-3.776,8.176c0.214-2.238,2.559-4.205,7.699-7.138c1.164-0.664,2.082-1.15,2.846-1.512
	C16.552,7.943,14.074,8.019,11.926,9.244z"/>
</svg>
