<svg version="1.1" id="Layer_1" xmlns="http://www.w3.org/2000/svg" xmlns:xlink="http://www.w3.org/1999/xlink" x="0px" y="0px"
	 width="44px" height="36px" viewBox="0 0 44 36" style="enable-background:new 0 0 44 36;" xml:space="preserve">
<path style="fill-rule:evenodd;clip-rule:evenodd;" d="M42,28c-0.001,0-0.003,0-0.004,0c-0.024,0-2.112,0-2.996,0
	c-7,0-14.141-7-19-7c-4.098,0-9.989,3.788-13.25,6.939c-3.049,2.628-5.044-1.099-2.731-2.918C7.205,22.106,13.688,17,20,17
	c6.116,0,13.164,7,19,7h3v0l0,0c1.104,0,2,0.896,2,2S43.104,28,42,28z M42,20c-0.001,0-0.003,0-0.004,0c-0.024,0-2.112,0-2.996,0
	C30,20,24,4,20,4C15.025,4,8.168,14,5.772,19.978c-1.308,2.872-5.01,1.311-3.318-2.047C5.394,12.101,12.409,0,20,0c8,0,12,16,19,16
	h3v0l0,0c1.104,0,2,0.896,2,2S43.104,20,42,20z M44,34c0,1.105-0.896,2-2,2H2c-1.104,0-2-0.896-2-2c0-1.104,0.896-2,2-2h40
	C43.104,32,44,32.895,44,34z"/>
</svg>
