<svg version="1.1" id="Layer_1" xmlns="http://www.w3.org/2000/svg" xmlns:xlink="http://www.w3.org/1999/xlink" x="0px" y="0px"
	 width="40px" height="40px" viewBox="0 0 40 40" style="enable-background:new 0 0 40 40;" xml:space="preserve">
<path style="fill-rule:evenodd;clip-rule:evenodd;" d="M20,40C8.954,40,0,31.045,0,20C0,8.954,8.954,0,20,0c11.046,0,20,8.954,20,20
	C40,31.045,31.046,40,20,40z M18,28c0,1.104,0.896,2,2,2l0,0l0,0l0,0c1.104,0,2-0.896,2-2v0c0-1.104-0.896-2-2-2l0,0l0,0l0,0
	C18.896,26,18,26.895,18,28L18,28z M22,12c0-1.104-0.896-2-2-2l0,0l0,0l0,0c-1.104,0-2,0.896-2,2v10c0,1.104,0.896,2,2,2l0,0l0,0
	l0,0c1.104,0,2-0.896,2-2V12z"/>
</svg>
