<?xml version="1.0" encoding="utf-8"?>
<!-- Generator: Adobe Illustrator 19.0.0, SVG Export Plug-In . SVG Version: 6.00 Build 0)  -->
<!DOCTYPE svg PUBLIC "-//W3C//DTD SVG 1.1//EN" "http://www.w3.org/Graphics/SVG/1.1/DTD/svg11.dtd">
<svg version="1.1" id="Layer_1" xmlns="http://www.w3.org/2000/svg" xmlns:xlink="http://www.w3.org/1999/xlink" x="0px" y="0px"
	 width="30px" height="20px" viewBox="-496 299 30 20" style="enable-background:new -496 299 30 20;" xml:space="preserve">
<path d="M-467.9,303h-26.2c-1,0-1.9-0.8-1.9-1.9v-0.2c0-1,0.8-1.9,1.9-1.9h26.2c1,0,1.9,0.8,1.9,1.9v0.2
	C-466,302.2-466.8,303-467.9,303z"/>
<path d="M-469.7,318.5l-12.7-12.7c-0.7-0.7-0.7-1.9,0-2.7l0.2-0.2c0.7-0.7,1.9-0.7,2.7,0l12.7,12.7c0.7,0.7,0.7,1.9,0,2.7l-0.2,0.2
	C-467.8,319.2-469,319.2-469.7,318.5z"/>
<path d="M-479.5,305.7l-12.7,12.7c-0.7,0.7-1.9,0.7-2.7,0l-0.2-0.2c-0.7-0.7-0.7-1.9,0-2.7l12.7-12.7c0.7-0.7,1.9-0.7,2.7,0l0.2,0.2
	C-478.8,303.8-478.8,305-479.5,305.7z"/>
</svg>
